<?xml version="1.0" standalone="no"?>
<!DOCTYPE svg PUBLIC "-//W3C//DTD SVG 20010904//EN"
 "http://www.w3.org/TR/2001/REC-SVG-20010904/DTD/svg10.dtd">
<svg version="1.0" xmlns="http://www.w3.org/2000/svg"
 width="1080.000000pt" height="240.000000pt" viewBox="0 0 1080.000000 240.000000"
 preserveAspectRatio="xMidYMid meet">

<g transform="translate(0.000000,240.000000) scale(0.100000,-0.100000)"
fill="#000000" stroke="none">
<path d="M1759 1953 c-965 -979 -1674 -1705 -1683 -1724 -7 -14 -4 -25 9 -39
18 -20 31 -20 1121 -20 l1103 0 161 122 160 123 -892 5 c-491 3 -899 9 -905
13 -7 5 -13 18 -13 30 0 13 250 362 615 859 338 461 615 846 615 857 0 15 -18
31 -35 31 -2 0 -117 -116 -256 -257z"/>
<path d="M1797 1698 c-18 -24 -110 -149 -204 -278 -94 -129 -274 -378 -402
-553 -149 -206 -231 -327 -231 -343 l0 -24 877 0 877 0 196 117 c107 64 202
122 210 130 12 11 -126 13 -847 13 -732 0 -862 2 -872 14 -14 17 -16 14 134
291 287 533 335 625 335 643 0 16 -17 32 -35 32 -2 0 -19 -19 -38 -42z"/>
<path d="M3800 1553 c-136 -51 -147 -255 -17 -317 29 -13 72 -16 256 -16 l221
0 0 25 0 25 -192 0 c-106 0 -210 5 -230 10 -51 15 -88 61 -88 112 0 32 7 47
34 74 l34 34 221 0 221 0 0 30 0 30 -222 -1 c-123 0 -230 -3 -238 -6z"/>
<path d="M4332 1421 c3 -139 3 -140 32 -170 l30 -31 224 0 c134 0 231 4 243
10 39 21 49 62 49 200 l0 130 -30 0 -30 0 0 -129 c0 -171 14 -161 -232 -161
-240 0 -228 -9 -228 165 l0 125 -31 0 -31 0 4 -139z"/>
<path d="M4980 1390 l0 -170 30 0 30 0 0 70 0 70 189 0 c189 0 189 0 220 -26
20 -17 35 -42 42 -70 10 -37 15 -44 35 -44 21 0 24 5 24 38 0 20 -9 54 -20 75
l-21 38 21 26 c31 39 27 98 -9 134 l-29 29 -256 0 -256 0 0 -170z m508 76 c2
-16 -2 -32 -10 -37 -7 -5 -109 -9 -225 -9 l-213 0 0 40 0 40 223 -2 222 -3 3
-29z"/>
<path d="M5620 1390 l0 -170 30 0 30 0 0 70 0 70 185 0 c147 0 192 -3 215 -15
33 -17 60 -61 60 -100 0 -21 4 -25 31 -25 l32 0 -7 48 c-3 26 -15 60 -27 75
l-20 28 25 30 c14 17 26 42 26 55 0 33 -25 81 -49 94 -12 6 -119 10 -275 10
l-256 0 0 -170z m514 88 c8 -13 8 -23 0 -35 -10 -16 -34 -18 -233 -21 l-221
-2 0 40 0 40 221 -2 c199 -3 223 -5 233 -20z"/>
<path d="M6270 1390 l0 -170 285 0 285 0 0 25 0 25 -255 0 -255 0 0 45 0 45
255 0 255 0 0 30 0 30 -255 0 -255 0 0 40 0 40 255 0 255 0 0 30 0 30 -285 0
-285 0 0 -170z"/>
<path d="M6910 1390 l0 -170 30 0 30 0 0 141 c0 109 3 140 13 136 6 -2 104
-66 216 -141 184 -122 209 -136 248 -136 l43 0 0 170 0 170 -30 0 -30 0 0
-140 c0 -77 -2 -140 -5 -140 -3 0 -100 63 -215 140 -192 128 -213 140 -255
140 l-45 0 0 -170z"/>
<path d="M7560 1530 l0 -30 130 0 130 0 0 -140 0 -140 30 0 30 0 0 140 0 140
125 0 125 0 0 30 0 30 -285 0 -285 0 0 -30z"/>
<path d="M8210 1530 l0 -30 125 0 125 0 0 -140 0 -140 30 0 30 0 0 140 0 140
130 0 130 0 0 30 0 30 -285 0 -285 0 0 -30z"/>
<path d="M8850 1390 l0 -170 285 0 285 0 0 25 0 25 -255 0 -255 0 0 45 0 45
255 0 255 0 0 30 0 30 -255 0 -255 0 0 40 0 40 255 0 255 0 0 30 0 30 -285 0
-285 0 0 -170z"/>
<path d="M9600 1549 c-61 -25 -102 -88 -102 -159 0 -50 12 -81 46 -118 44 -49
60 -52 301 -52 l225 0 0 24 0 25 -217 3 c-208 3 -219 4 -250 26 -42 29 -59 80
-43 127 21 65 38 69 285 75 l220 5 3 28 3 27 -223 -1 c-123 0 -234 -5 -248
-10z"/>
<path d="M10140 1390 l0 -170 30 0 30 0 0 70 0 70 228 -2 227 -3 3 -67 c3 -65
4 -68 27 -68 l25 0 0 170 0 170 -25 0 c-23 0 -24 -3 -27 -67 l-3 -68 -227 -3
-228 -2 0 70 0 70 -30 0 -30 0 0 -170z"/>
<path d="M3690 800 l0 -170 30 0 30 0 0 170 0 170 -30 0 -30 0 0 -170z"/>
<path d="M3820 800 c0 -163 1 -170 20 -170 11 0 23 -1 28 -2 4 -2 9 61 12 140
l5 142 210 -140 c188 -125 215 -140 253 -140 l42 0 0 171 0 170 -27 -3 -28 -3
-3 -137 c-1 -76 -5 -138 -7 -138 -3 0 -99 63 -214 140 -184 124 -213 140 -250
140 l-41 0 0 -170z"/>
<path d="M4460 800 l0 -170 224 0 c124 0 236 4 249 9 39 15 86 69 97 113 16
57 4 113 -33 155 -52 59 -71 63 -317 63 l-220 0 0 -170z m472 90 c58 -45 61
-129 7 -174 -40 -34 -67 -37 -254 -34 l-160 3 -3 113 -3 112 194 0 c178 0 196
-2 219 -20z"/>
<path d="M5110 831 c0 -135 1 -140 26 -170 l26 -31 233 0 233 0 26 31 c25 30
26 35 26 170 l0 139 -30 0 -30 0 0 -135 c0 -123 -2 -135 -19 -145 -26 -13
-386 -13 -412 0 -17 10 -19 22 -19 145 l0 135 -30 0 -30 0 0 -139z"/>
<path d="M5788 941 c-27 -24 -33 -36 -33 -71 0 -35 6 -47 33 -71 l32 -29 209
0 c177 0 212 -2 225 -16 22 -21 20 -40 -6 -58 -19 -13 -60 -16 -250 -16 l-228
0 0 -25 0 -25 246 0 c149 0 253 4 265 10 53 29 61 116 13 161 -25 24 -29 24
-245 27 -205 3 -220 4 -229 23 -8 13 -7 25 0 39 10 19 21 20 250 20 l240 0 0
30 0 30 -245 0 -245 0 -32 -29z"/>
<path d="M6400 940 l0 -30 130 0 130 0 0 -140 0 -140 30 0 30 0 0 140 0 140
125 0 125 0 0 30 0 30 -285 0 -285 0 0 -30z"/>
<path d="M7050 800 l0 -170 25 0 c24 0 25 2 25 70 l0 70 186 0 c154 0 191 -3
214 -16 33 -20 60 -63 60 -98 0 -22 4 -26 30 -26 26 0 30 4 30 28 0 16 -11 50
-24 77 l-25 48 25 29 c13 16 24 41 24 55 0 34 -28 79 -57 92 -15 7 -114 11
-268 11 l-245 0 0 -170z m504 88 c8 -13 8 -23 0 -35 -10 -16 -34 -18 -233 -21
l-221 -2 0 40 0 40 221 -2 c199 -3 223 -5 233 -20z"/>
<path d="M7690 800 l0 -170 30 0 30 0 0 170 0 170 -30 0 -30 0 0 -170z"/>
<path d="M7820 800 l0 -170 285 0 285 0 0 25 0 25 -252 2 -253 3 -3 43 -3 42
255 0 256 0 0 30 0 30 -255 0 -255 0 0 40 0 40 255 0 255 0 0 30 0 30 -285 0
-285 0 0 -170z"/>
<path d="M8498 941 c-27 -24 -33 -36 -33 -71 0 -35 6 -47 33 -71 l32 -29 209
0 c177 0 212 -2 225 -16 22 -21 20 -40 -6 -58 -19 -13 -60 -16 -250 -16 l-228
0 0 -27 0 -28 245 2 c149 2 253 7 265 13 54 29 62 116 14 161 -25 24 -29 24
-245 27 l-220 3 -11 24 c-8 19 -8 28 2 40 10 13 49 15 251 15 l239 0 0 30 0
30 -245 0 -245 0 -32 -29z"/>
</g>
</svg>
